<?xml version="1.0" encoding="utf-8"?>
<!-- Generator: Adobe Illustrator 25.0.0, SVG Export Plug-In . SVG Version: 6.00 Build 0)  -->
<svg version="1.1" xmlns="http://www.w3.org/2000/svg" xmlns:xlink="http://www.w3.org/1999/xlink" x="0px" y="0px"
	 viewBox="0 0 775.43 775.43" style="enable-background:new 0 0 775.43 775.43;" xml:space="preserve">
<style type="text/css">
	.st0{display:none;}
	.st1{display:inline;fill:#FFFFFF;}
	.st2{fill:#FFFFFF;}
	.st3{fill:url(#SVGID_1_);}
	.st4{fill:#00BB5E;}
	.st5{fill:url(#SVGID_2_);}
	.st6{fill:url(#SVGID_3_);}
	.st7{fill:none;stroke:#000000;stroke-width:0.5;stroke-linecap:round;stroke-linejoin:round;}
</style>
<g id="Layer_2" class="st0">
	<circle class="st1" cx="380.44" cy="380.44" r="370.73"/>
</g>
<g id="Layer_1">
	<g>
		<g id="XMLID_1_">
			<g>
				<path class="st2" d="M626.7,325.59c12.61,30.72,19.23,63.92,19.23,98.13c0,68.98-26.86,133.82-75.63,182.59
					c-48.77,48.77-113.62,75.63-182.59,75.63s-133.82-26.86-182.59-75.63c-48.77-48.77-75.63-113.61-75.63-182.59
					c0-64.78,23.7-125.91,66.98-173.51c-7.4-2.12-14.8-4.24-22.17-6.35c-14.45-4.14-25.68-13.22-32.49-26.25
					c-3.02-5.78-4.73-12.67-4.81-19.38c-0.11-8.9-0.05-17.88,0-26.56c0.08-13.44,0.17-27.33-0.36-40.79
					c-0.39-10,2.88-18.91,9.46-25.74c7.13-7.41,17.65-11.66,28.87-11.66c0.23,0,0.47,0,0.7,0c5.07,0.08,9.59,1.24,13.34,2.36
					c44.36,13.23,88.71,26.49,133.06,39.76l22.21,6.64c-0.29-0.97-0.52-1.98-0.71-3.01c-1.86-10.24,2.19-20.1,10.82-26.35
					c2.07-1.5,4.11-2.76,5.9-3.86c1.55-0.96,3.01-1.86,4.1-2.68c2.01-1.52,4.13-3.39,6.37-5.37c1.12-0.98,2.24-1.97,3.39-2.96
					c3.11-2.67,7.05-4.1,11.08-4.1c1.15,0,2.31,0.11,3.45,0.35c5.05,1.05,9.34,4.33,11.68,8.9c0.83,0.85,3.48,2.48,5.26,3.57
					c1.2,0.73,2.4,1.47,3.58,2.24l0.98,0.63c1.9,1.21,4.26,2.71,6.62,4.76c7.37,6.42,10.69,15.87,8.91,25.3
					c-0.76,4.07-2.42,7.8-4.79,11c0.29,0.86,0.5,1.76,0.64,2.68c0.4,2.58,0.31,7.12-1.43,11.57c6.36,1.91,12.73,3.8,19.09,5.71
					c15.39,3.1,30.38,7.59,44.84,13.4c31.73,9.49,63.45,18.97,95.17,28.45l11.98,3.58c11.01,3.29,19.8,9.1,26.11,17.27
					c6.22,8.06,9.37,17.01,9.39,26.62l0.01,10.44C626.75,288.47,626.78,307.16,626.7,325.59z M628.61,421.83
					c0-33.18-6.67-65.33-19.34-94.94c0.06-0.66,0.1-1.33,0.1-2.01c0.11-22.27,0.05-44.55,0.02-66.82
					c-0.01-6.09-2.13-11.43-5.84-16.24c-4.54-5.87-10.57-9.3-17.53-11.38c-35.99-10.75-71.98-21.51-107.97-32.27
					c-13.94-5.65-28.41-9.99-43.27-12.94c-8.18-2.44-16.37-4.89-24.56-7.34c-3.17-0.94-7.56-1.16-9.09-3.32
					c-1.65-2.34-0.55-6.58-0.77-9.99c-0.17-2.89,0.78-5.04,3.1-6.92c0.84-0.67,1.14-3.65,0.94-3.73c-2.51-1.01-2.62-3.67-4.02-5.37
					c-2.15-2.62-1.51-5.24,1.68-6.39c7.38-2.63,9.18-11.72,3.28-16.87c-1.75-1.51-3.77-2.71-5.72-3.97
					c-5.67-3.68-11.94-6.62-14.71-12.32c-3.61,3.1-6.96,6.25-10.6,9.01c-3.26,2.46-6.96,4.33-10.27,6.74
					c-3.18,2.3-4.77,5.62-4.05,9.56c0.69,3.85,2.95,6.61,6.79,7.91c3.4,1.15,3.73,3.56,1.38,6.53c-1.36,1.73-2.02,3.94-3.94,5.4
					c-0.35,0.26,0.36,2.86,1.25,3.66c2.24,2.04,3.52,4.14,2.53,7.35c-1.16-0.31-2.23-0.56-3.28-0.87
					c-60.29-18.03-120.58-36.08-180.89-54.07c-2.84-0.84-5.83-1.6-8.76-1.64c-10.09-0.17-22.31,5.65-21.76,19.74
					c0.88,22.57,0.1,45.2,0.37,67.8c0.04,3.94,1.06,8.23,2.88,11.71c4.7,9,12.16,14.93,22.1,17.78c16.74,4.79,33.46,9.6,50.19,14.41
					c-4.11,3.6-8.13,7.33-12.02,11.23c-45.57,45.56-70.66,106.14-70.66,170.57s25.09,125.01,70.66,170.57
					c45.56,45.56,106.13,70.65,170.56,70.65c64.44,0,125.01-25.09,170.57-70.65S628.61,486.26,628.61,421.83z"/>
				<path d="M609.27,326.89c12.67,29.61,19.34,61.76,19.34,94.94c0,64.43-25.09,125.01-70.65,170.57s-106.13,70.65-170.57,70.65
					c-64.43,0-125-25.09-170.56-70.65c-45.57-45.56-70.66-106.14-70.66-170.57s25.09-125.01,70.66-170.57
					c3.89-3.9,7.91-7.63,12.02-11.23c-16.73-4.81-33.45-9.62-50.19-14.41c-9.94-2.85-17.4-8.78-22.1-17.78
					c-1.82-3.48-2.84-7.77-2.88-11.71c-0.27-22.6,0.51-45.23-0.37-67.8c-0.55-14.09,11.67-19.91,21.76-19.74
					c2.93,0.04,5.92,0.8,8.76,1.64c60.31,17.99,120.6,36.04,180.89,54.07c1.05,0.31,2.12,0.56,3.28,0.87
					c0.99-3.21-0.29-5.31-2.53-7.35c-0.89-0.8-1.6-3.4-1.25-3.66c1.92-1.46,2.58-3.67,3.94-5.4c2.35-2.97,2.02-5.38-1.38-6.53
					c-3.84-1.3-6.1-4.06-6.79-7.91c-0.72-3.94,0.87-7.26,4.05-9.56c3.31-2.41,7.01-4.28,10.27-6.74c3.64-2.76,6.99-5.91,10.6-9.01
					c2.77,5.7,9.04,8.64,14.71,12.32c1.95,1.26,3.97,2.46,5.72,3.97c5.9,5.15,4.1,14.24-3.28,16.87c-3.19,1.15-3.83,3.77-1.68,6.39
					c1.4,1.7,1.51,4.36,4.02,5.37c0.2,0.08-0.1,3.06-0.94,3.73c-2.32,1.88-3.27,4.03-3.1,6.92c0.22,3.41-0.88,7.65,0.77,9.99
					c1.53,2.16,5.92,2.38,9.09,3.32c8.19,2.45,16.38,4.9,24.56,7.34c14.86,2.95,29.33,7.29,43.27,12.94
					c35.99,10.76,71.98,21.52,107.97,32.27c6.96,2.08,12.99,5.51,17.53,11.38c3.71,4.81,5.83,10.15,5.84,16.24
					c0.03,22.27,0.09,44.55-0.02,66.82C609.37,325.56,609.33,326.23,609.27,326.89z M614.37,421.83c0-28.35-5.24-55.49-14.77-80.53
					c-3.19,1.58-6.94,2.18-10.93,1.46c-10.07-1.82-19.91-4.99-29.8-7.72c-9.59-2.64-19.11-5.47-29.06-8.34c0,1.59,0,2.79,0,3.98
					c0,15.18,0,30.37,0,45.54c0,12.25-6.93,21.41-18.96,24.33c-11.93,2.9-23.97,5.34-35.96,7.97c-14.16,3.11-28.32,6.2-42.47,9.31
					c-0.61,0.13-1.19,0.4-1.53,0.52c0.95,2.87,2.31,5.49,2.61,8.21c0.62,5.63-2.26,10.08-6.17,13.75c-5.5,5.14-11.26,10-16.82,15.08
					c-1.69,1.56-3.36,3.27-4.53,5.23c-2.4,4.06-1.14,9.54,2.82,12.06c1.9,1.21,3.44,2.56,2.64,4.69c-0.59,1.58-2.29,2.74-4.08,4.72
					c-0.52,0.89-1.34,2.78-2.59,4.3c-1.81,2.19-0.69,6.76,2.04,7.47c9.94,2.56,13.42,14.81,6.22,22.17
					c-8.07,8.22-12.49,17.74-11.95,29.53c0.33,7.26,0.15,78.21,0.09,102.82C519.93,641.23,614.37,542.36,614.37,421.83z
					 M589.91,326.98c2.31,0.36,3.46-0.61,3.43-3.15c-0.08-8.53,0.03-17.06-0.1-25.6c-0.01-1.1-0.74-2.5-1.6-3.23
					c-6.45-5.54-7.77-17.76-1.63-23.65c3.04-2.93,3.58-5.7,3.18-9.55c0.69-4.25,0.09-8.62-3.6-11.56c-2.51-2.01-5.61-3.62-8.7-4.54
					c-133.17-39.92-266.38-79.73-399.57-119.56c-1.9-0.56-3.81-1.22-5.76-1.54c-3.5-0.58-4.45,0.25-4.49,3.77
					c-0.07,4.99,0.06,9.99-0.06,14.97c-0.09,3.81-0.21,7.46,3.4,10.09c0.95,0.69,1.36,2.24,1.81,3.46
					c2.02,5.37,1.35,10.78-1.62,15.33c-3.47,5.3-3.82,10.86-3.58,16.77c0.11,2.65,0.05,5.31,0.02,7.97
					c-0.04,3.69,1.37,6.97,4.16,9.05c2.66,2,5.91,3.52,9.13,4.45c98.71,28.52,197.47,56.86,296.15,85.49
					c9.05,2.62,17.42,3.8,26.71,0.74c10.46-3.44,20.38,2.62,22.22,11.69c0.2,0.98,1.87,2.03,3.06,2.39
					c17.09,5,34.21,9.89,51.33,14.79C585.81,326.13,587.85,326.65,589.91,326.98z M515.34,375.95c0-10.08,0-20.16,0-30.24
					c0-10.3,0-20.61,0-30.91c0-4.7-0.62-5.17-5.31-4.1c-0.54,0.13-1.08,0.26-1.61,0.4c-72.86,18.97-190.95,49.91-263.82,68.89
					c-9.2,2.4-18.42,4.73-27.58,7.27c-6.17,1.72-8.25,4.72-8.25,11.05c0,15.62,0,31.24,0,46.86c0,8.98-0.01,8.91,8.77,6.99
					c65.35-14.32,175.93-40.57,241.29-54.87c15.99-3.5,31.98-6.97,47.95-10.56C512.91,385.36,515.34,382.14,515.34,375.95z
					 M462.78,308.08c0.01-0.23,0.04-0.45,0.05-0.67c-20.64-5.95-41.29-11.89-62.24-17.93c0,1.81,0,3.19,0,4.53
					c7.96,1.58,9.58,4.76,5.77,9.91c0.6,2.06,1.31,3.74,1.55,5.5c0.55,3.95,0.87,7.94,1.35,12.59
					C427.79,317.19,445.29,312.63,462.78,308.08z M368.34,294.06c0-4.12,0.14-8.31-0.13-12.48c-0.05-0.78-1.65-1.81-2.71-2.12
					c-16.77-4.92-33.57-9.76-50.36-14.59c-23.21-6.68-46.43-13.38-69.64-20.06c-51.84,41.63-85.09,105.51-85.09,177.02
					c0,118.32,91.01,215.76,206.69,226.06v-85c0.02-7.54,0.15-15.07-0.03-22.61c-0.2-9.27-4.39-17.04-10.87-23.17
					c-8.72-8.24-4.1-21.87,6.28-23.44c2.01-0.3,2.67-5.4,1.21-7.2c-1.25-1.54-2.19-3.34-3.39-5.22c-1.06-1.17-2.91-2.4-3.51-4.09
					c-0.74-2.12,1.12-3.39,2.91-4.58c3.72-2.49,4.97-7.9,2.73-11.81c-1.08-1.88-2.62-3.57-4.23-5.05
					c-5.87-5.39-11.81-10.71-17.86-15.91c-0.88-0.76-2.58-1.19-3.72-0.94c-24.23,5.19-93.64,22.54-117.87,27.67
					c-3.61,0.76-7.51,1-11.14,0.52c-8.03-1.07-13.13-6.95-13.18-15.03c-0.14-19.06-0.19-38.11,0.01-57.18
					c0.09-8.04,4.26-14.12,11.11-18.1c3.03-1.75,6.42-3.06,9.81-3.96c30.58-8.08,106.42-28,137.05-35.91
					c2.24-0.57,3.18-1.54,3.65-3.87c1.23-6.18,2.88-12.27,4.3-18.42c0.24-1.03,0.11-2.13,0.23-3.2c0.26-2.37,0.57-4.74,0.97-8.02
					C358.05,298.6,359.83,295.4,368.34,294.06z"/>
				<linearGradient id="SVGID_1_" gradientUnits="userSpaceOnUse" x1="507.7065" y1="487.5436" x2="507.7065" y2="274.2094">
					<stop  offset="0" style="stop-color:#7FEEFF"/>
					<stop  offset="1" style="stop-color:#EF94FF"/>
				</linearGradient>
				<path class="st3" d="M599.6,341.3c9.53,25.04,14.77,52.18,14.77,80.53c0,120.53-94.44,219.4-213.2,226.55
					c0.06-24.61,0.24-95.56-0.09-102.82c-0.54-11.79,3.88-21.31,11.95-29.53c7.2-7.36,3.72-19.61-6.22-22.17
					c-2.73-0.71-3.85-5.28-2.04-7.47c1.25-1.52,2.07-3.41,2.59-4.3c1.79-1.98,3.49-3.14,4.08-4.72c0.8-2.13-0.74-3.48-2.64-4.69
					c-3.96-2.52-5.22-8-2.82-12.06c1.17-1.96,2.84-3.67,4.53-5.23c5.56-5.08,11.32-9.94,16.82-15.08c3.91-3.67,6.79-8.12,6.17-13.75
					c-0.3-2.72-1.66-5.34-2.61-8.21c0.34-0.12,0.92-0.39,1.53-0.52c14.15-3.11,28.31-6.2,42.47-9.31
					c11.99-2.63,24.03-5.07,35.96-7.97c12.03-2.92,18.96-12.08,18.96-24.33c0-15.17,0-30.36,0-45.54c0-1.19,0-2.39,0-3.98
					c9.95,2.87,19.47,5.7,29.06,8.34c9.89,2.73,19.73,5.9,29.8,7.72C592.66,343.48,596.41,342.88,599.6,341.3z"/>
				<path class="st4" d="M593.34,323.83c0.03,2.54-1.12,3.51-3.43,3.15c-2.06-0.33-4.1-0.85-6.11-1.42
					c-17.12-4.9-34.24-9.79-51.33-14.79c-1.19-0.36-2.86-1.41-3.06-2.39c-1.84-9.07-11.76-15.13-22.22-11.69
					c-9.29,3.06-17.66,1.88-26.71-0.74c-98.68-28.63-197.44-56.97-296.15-85.49c-3.22-0.93-6.47-2.45-9.13-4.45
					c-2.79-2.08-4.2-5.36-4.16-9.05c0.03-2.66,0.09-5.32-0.02-7.97c-0.24-5.91,0.11-11.47,3.58-16.77
					c2.97-4.55,3.64-9.96,1.62-15.33c-0.45-1.22-0.86-2.77-1.81-3.46c-3.61-2.63-3.49-6.28-3.4-10.09
					c0.12-4.98-0.01-9.98,0.06-14.97c0.04-3.52,0.99-4.35,4.49-3.77c1.95,0.32,3.86,0.98,5.76,1.54
					c133.19,39.83,266.4,79.64,399.57,119.56c3.09,0.92,6.19,2.53,8.7,4.54c3.69,2.94,4.29,7.31,3.6,11.56
					c0.4,3.85-0.14,6.62-3.18,9.55c-6.14,5.89-4.82,18.11,1.63,23.65c0.86,0.73,1.59,2.13,1.6,3.23
					C593.37,306.77,593.26,315.3,593.34,323.83z M578.28,262.2l0.4-13.81l-58.16-16.77l-1.85,63.15l59.54,17.18l0.41-13.8
					l-38.78-11.19l0.34-11.55l32.95,9.51l0.39-13.36l-32.95-9.5l0.31-10.65L578.28,262.2z M487.95,285.91l1.63-63.22l-17.27-4.98
					l-26.49,29.11l-24.99-43.97l-17.27-4.98l-1.85,63.16l19.39,5.59l0.95-32.57l18.2,31.82l9.32,2.69l19.86-21.75l-0.76,33.54
					L487.95,285.91z M370.88,252.14l1.85-63.16l-20.98-6.05l-1.84,63.16L370.88,252.14z M325.75,239.12l0.42-14.17l-35.39-10.21
					l1.43-48.99l-20.97-6.05l-1.85,63.16L325.75,239.12z M244.42,196.36c0.13-4.39-1.13-8.25-3.78-11.59
					c-2.64-3.35-5.8-6.14-9.47-8.38c-3.68-2.24-8.32-4.69-13.94-7.34c-4.99-2.35-8.6-4.27-10.84-5.77
					c-2.24-1.49-3.33-3.08-3.28-4.77c0.05-1.68,1.04-2.77,2.98-3.28c1.94-0.5,4.99-0.15,9.16,1.05c6.64,1.92,13.44,5.52,20.41,10.81
					l6.85-11.4c-3.55-2.85-7.68-5.42-12.38-7.72c-4.71-2.29-9.5-4.14-14.37-5.55c-7.13-2.06-13.18-2.89-18.14-2.5
					c-4.97,0.38-8.73,1.77-11.29,4.15c-2.56,2.39-3.9,5.51-4.01,9.36c-0.13,4.39,1.11,8.26,3.72,11.62
					c2.61,3.37,5.77,6.17,9.48,8.42c3.7,2.26,8.33,4.7,13.88,7.33c5.06,2.43,8.72,4.41,10.99,5.95c2.27,1.53,3.38,3.2,3.33,5.01
					c-0.1,3.42-4.18,3.98-12.23,1.66c-4.23-1.23-8.53-3.04-12.87-5.45c-4.35-2.4-8.15-5.02-11.42-7.84l-7.27,11.19
					c3.47,3.12,8.01,6.13,13.63,9.02c5.61,2.89,11.42,5.21,17.42,6.94c7.06,2.04,13.09,2.85,18.09,2.44c5-0.41,8.78-1.79,11.34-4.14
					C242.97,203.22,244.31,200.15,244.42,196.36z"/>
				<polygon class="st2" points="578.68,248.39 578.28,262.2 540.88,251.41 540.57,262.06 573.52,271.56 573.13,284.92 
					540.18,275.41 539.84,286.96 578.62,298.15 578.21,311.95 518.67,294.77 520.52,231.62 				"/>
				<path class="st4" d="M515.34,345.71c0,10.08,0,20.16,0,30.24c0,6.19-2.43,9.41-8.56,10.78c-15.97,3.59-31.96,7.06-47.95,10.56
					c-65.36,14.3-175.94,40.55-241.29,54.87c-8.78,1.92-8.77,1.99-8.77-6.99c0-15.62,0-31.24,0-46.86c0-6.33,2.08-9.33,8.25-11.05
					c9.16-2.54,18.38-4.87,27.58-7.27c72.87-18.98,190.96-49.92,263.82-68.89c0.53-0.14,1.07-0.27,1.61-0.4
					c4.69-1.07,5.31-0.6,5.31,4.1C515.34,325.1,515.34,335.41,515.34,345.71z M502.54,335.52v-10.7l-44.68,11.14v10.7l15.32-3.82
					v37.03l14.11-3.52v-37.02L502.54,335.52z M454.73,384.47v-10.43l-26.09,6.5v-8.73l22.17-5.52V356.2l-22.17,5.52v-8.04
					l25.16-6.28v-10.43l-39.12,9.76v47.72L454.73,384.47z M406.84,396.41v-10.43l-26.09,6.5v-8.73l22.17-5.52v-10.09l-22.17,5.52
					v-8.04l25.16-6.28v-10.43l-39.12,9.76v47.72L406.84,396.41z M360.02,408.08l-10.76-12.32c3.13-2.23,5.54-4.84,7.23-7.83
					c1.69-2.99,2.53-6.21,2.53-9.67c0-3.59-0.9-6.49-2.71-8.7c-1.8-2.21-4.37-3.61-7.69-4.21c-3.33-0.61-7.25-0.35-11.76,0.78
					l-22.81,5.68v47.73l14.11-3.52v-12.68l7.7-1.92l9.05,10.43L360.02,408.08z M308.78,383.83v-10.7l-44.68,11.14v10.7l15.32-3.82
					v37.03l14.11-3.52v-37.02L308.78,383.83z M263.03,417.81c0-3.32-0.92-5.72-2.74-7.19c-1.83-1.48-3.99-2.35-6.49-2.61
					c-2.49-0.27-5.64-0.31-9.44-0.14c-3.38,0.16-5.82,0.11-7.34-0.14c-1.52-0.26-2.28-1.02-2.28-2.3c0-1.27,0.64-2.47,1.92-3.58
					c1.28-1.11,3.33-2.02,6.13-2.72c4.47-1.11,9.07-1.04,13.83,0.23l4.34-11.1c-2.42-0.76-5.22-1.1-8.41-1.01
					c-3.18,0.09-6.41,0.54-9.69,1.36c-4.8,1.2-8.85,2.89-12.15,5.08c-3.3,2.18-5.78,4.65-7.45,7.41c-1.66,2.76-2.49,5.59-2.49,8.5
					c0,3.31,0.9,5.73,2.71,7.23c1.8,1.5,3.96,2.38,6.48,2.64c2.52,0.26,5.66,0.31,9.41,0.15c3.42-0.13,5.9-0.05,7.45,0.22
					c1.54,0.27,2.31,1.09,2.31,2.46c0,2.59-2.7,4.56-8.12,5.91c-2.85,0.71-5.75,1-8.7,0.87c-2.94-0.13-5.53-0.62-7.76-1.47
					l-4.64,11.11c2.38,1,5.47,1.5,9.27,1.5c3.8,0.01,7.72-0.49,11.76-1.5c4.75-1.18,8.79-2.88,12.11-5.09
					c3.33-2.22,5.82-4.69,7.49-7.43C262.2,423.47,263.03,420.67,263.03,417.81z"/>
				<polygon class="st2" points="502.54,324.82 502.54,335.52 487.29,339.33 487.29,376.35 473.18,379.87 473.18,342.84 
					457.86,346.66 457.86,335.96 				"/>
				<polygon class="st2" points="489.58,222.69 487.95,285.91 468.67,280.35 469.43,246.81 449.57,268.56 440.25,265.87 
					422.05,234.05 421.1,266.62 401.71,261.03 403.56,197.87 420.83,202.85 445.82,246.82 472.31,217.71 				"/>
				<linearGradient id="SVGID_2_" gradientUnits="userSpaceOnUse" x1="431.7137" y1="305.7487" x2="431.7137" y2="243.5086">
					<stop  offset="0" style="stop-color:#DA94FF"/>
					<stop  offset="1" style="stop-color:#FB94FF"/>
				</linearGradient>
				<path class="st5" d="M462.83,307.41c-0.01,0.22-0.04,0.44-0.05,0.67c-17.49,4.55-34.99,9.11-53.52,13.93
					c-0.48-4.65-0.8-8.64-1.35-12.59c-0.24-1.76-0.95-3.44-1.55-5.5c3.81-5.15,2.19-8.33-5.77-9.91c0-1.34,0-2.72,0-4.53
					C421.54,295.52,442.19,301.46,462.83,307.41z"/>
				<polygon class="st2" points="454.73,374.04 454.73,384.47 414.68,394.45 414.68,346.73 453.8,336.97 453.8,347.4 428.64,353.68 
					428.64,361.72 450.81,356.2 450.81,366.29 428.64,371.81 428.64,380.54 				"/>
				<polygon class="st2" points="406.84,385.98 406.84,396.41 366.79,406.39 366.79,358.67 405.91,348.91 405.91,359.34 
					380.75,365.62 380.75,373.66 402.92,368.14 402.92,378.23 380.75,383.75 380.75,392.48 				"/>
				<polygon class="st2" points="372.73,188.98 370.88,252.14 349.91,246.09 351.75,182.93 				"/>
				<linearGradient id="SVGID_3_" gradientUnits="userSpaceOnUse" x1="264.3968" y1="446.3536" x2="264.3968" y2="238.3874">
					<stop  offset="0" style="stop-color:#7FEEFF"/>
					<stop  offset="1" style="stop-color:#EF94FF"/>
				</linearGradient>
				<path class="st6" d="M368.21,281.58c0.27,4.17,0.13,8.36,0.13,12.48c-8.51,1.34-10.29,4.54-6.78,9.31
					c-0.4,3.28-0.71,5.65-0.97,8.02c-0.12,1.07,0.01,2.17-0.23,3.2c-1.42,6.15-3.07,12.24-4.3,18.42c-0.47,2.33-1.41,3.3-3.65,3.87
					c-30.63,7.91-106.47,27.83-137.05,35.91c-3.39,0.9-6.78,2.21-9.81,3.96c-6.85,3.98-11.02,10.06-11.11,18.1
					c-0.2,19.07-0.15,38.12-0.01,57.18c0.05,8.08,5.15,13.96,13.18,15.03c3.63,0.48,7.53,0.24,11.14-0.52
					c24.23-5.13,93.64-22.48,117.87-27.67c1.14-0.25,2.84,0.18,3.72,0.94c6.05,5.2,11.99,10.52,17.86,15.91
					c1.61,1.48,3.15,3.17,4.23,5.05c2.24,3.91,0.99,9.32-2.73,11.81c-1.79,1.19-3.65,2.46-2.91,4.58c0.6,1.69,2.45,2.92,3.51,4.09
					c1.2,1.88,2.14,3.68,3.39,5.22c1.46,1.8,0.8,6.9-1.21,7.2c-10.38,1.57-15,15.2-6.28,23.44c6.48,6.13,10.67,13.9,10.87,23.17
					c0.18,7.54,0.05,15.07,0.03,22.61v85c-115.68-10.3-206.69-107.74-206.69-226.06c0-71.51,33.25-135.39,85.09-177.02
					c23.21,6.68,46.43,13.38,69.64,20.06c16.79,4.83,33.59,9.67,50.36,14.59C366.56,279.77,368.16,280.8,368.21,281.58z"/>
				<path class="st2" d="M349.26,395.76l10.76,12.32l-15.11,3.77l-9.05-10.43l-7.7,1.92v12.68l-14.11,3.52v-47.73l22.81-5.68
					c4.51-1.13,8.43-1.39,11.76-0.78c3.32,0.6,5.89,2,7.69,4.21c1.81,2.21,2.71,5.11,2.71,8.7c0,3.46-0.84,6.68-2.53,9.67
					C354.8,390.92,352.39,393.53,349.26,395.76z M342.56,387.51c1.47-1.57,2.21-3.47,2.21-5.69c0-2.23-0.74-3.77-2.21-4.63
					c-1.47-0.86-3.66-0.93-6.56-0.21l-7.84,1.95v13.98l7.84-1.95C338.9,390.23,341.09,389.09,342.56,387.51z"/>
				<path class="st4" d="M344.77,381.82c0,2.22-0.74,4.12-2.21,5.69c-1.47,1.58-3.66,2.72-6.56,3.45l-7.84,1.95v-13.98l7.84-1.95
					c2.9-0.72,5.09-0.65,6.56,0.21C344.03,378.05,344.77,379.59,344.77,381.82z"/>
				<polygon class="st2" points="326.17,224.95 325.75,239.12 269.39,222.86 271.24,159.7 292.21,165.75 290.78,214.74 				"/>
				<polygon class="st2" points="308.78,373.13 308.78,383.83 293.53,387.64 293.53,424.66 279.42,428.18 279.42,391.15 
					264.1,394.97 264.1,384.27 				"/>
				<path class="st2" d="M260.29,410.62c1.82,1.47,2.74,3.87,2.74,7.19c0,2.86-0.83,5.66-2.49,8.39c-1.67,2.74-4.16,5.21-7.49,7.43
					c-3.32,2.21-7.36,3.91-12.11,5.09c-4.04,1.01-7.96,1.51-11.76,1.5c-3.8,0-6.89-0.5-9.27-1.5l4.64-11.11
					c2.23,0.85,4.82,1.34,7.76,1.47c2.95,0.13,5.85-0.16,8.7-0.87c5.42-1.35,8.12-3.32,8.12-5.91c0-1.37-0.77-2.19-2.31-2.46
					c-1.55-0.27-4.03-0.35-7.45-0.22c-3.75,0.16-6.89,0.11-9.41-0.15c-2.52-0.26-4.68-1.14-6.48-2.64c-1.81-1.5-2.71-3.92-2.71-7.23
					c0-2.91,0.83-5.74,2.49-8.5c1.67-2.76,4.15-5.23,7.45-7.41c3.3-2.19,7.35-3.88,12.15-5.08c3.28-0.82,6.51-1.27,9.69-1.36
					c3.19-0.09,5.99,0.25,8.41,1.01l-4.34,11.1c-4.76-1.27-9.36-1.34-13.83-0.23c-2.8,0.7-4.85,1.61-6.13,2.72
					c-1.28,1.11-1.92,2.31-1.92,3.58c0,1.28,0.76,2.04,2.28,2.3c1.52,0.25,3.96,0.3,7.34,0.14c3.8-0.17,6.95-0.13,9.44,0.14
					C256.3,408.27,258.46,409.14,260.29,410.62z"/>
				<path class="st2" d="M240.64,184.77c2.65,3.34,3.91,7.2,3.78,11.59c-0.11,3.79-1.45,6.86-4.01,9.22
					c-2.56,2.35-6.34,3.73-11.34,4.14c-5,0.41-11.03-0.4-18.09-2.44c-6-1.73-11.81-4.05-17.42-6.94c-5.62-2.89-10.16-5.9-13.63-9.02
					l7.27-11.19c3.27,2.82,7.07,5.44,11.42,7.84c4.34,2.41,8.64,4.22,12.87,5.45c8.05,2.32,12.13,1.76,12.23-1.66
					c0.05-1.81-1.06-3.48-3.33-5.01c-2.27-1.54-5.93-3.52-10.99-5.95c-5.55-2.63-10.18-5.07-13.88-7.33
					c-3.71-2.25-6.87-5.05-9.48-8.42c-2.61-3.36-3.85-7.23-3.72-11.62c0.11-3.85,1.45-6.97,4.01-9.36
					c2.56-2.38,6.32-3.77,11.29-4.15c4.96-0.39,11.01,0.44,18.14,2.5c4.87,1.41,9.66,3.26,14.37,5.55c4.7,2.3,8.83,4.87,12.38,7.72
					l-6.85,11.4c-6.97-5.29-13.77-8.89-20.41-10.81c-4.17-1.2-7.22-1.55-9.16-1.05c-1.94,0.51-2.93,1.6-2.98,3.28
					c-0.05,1.69,1.04,3.28,3.28,4.77c2.24,1.5,5.85,3.42,10.84,5.77c5.62,2.65,10.26,5.1,13.94,7.34
					C234.84,178.63,238,181.42,240.64,184.77z"/>
			</g>
			<g>
				<path class="st7" d="M407.91,309.42c-0.24-1.76-0.95-3.44-1.55-5.5c3.81-5.15,2.19-8.33-5.77-9.91c0-1.34,0-2.72,0-4.53
					c20.95,6.04,41.6,11.98,62.24,17.93c-0.01,0.22-0.04,0.44-0.05,0.67c-17.49,4.55-34.99,9.11-53.52,13.93
					C408.78,317.36,408.46,313.37,407.91,309.42z"/>
				<path class="st7" d="M401.17,648.38c0.06-24.61,0.24-95.56-0.09-102.82c-0.54-11.79,3.88-21.31,11.95-29.53
					c7.2-7.36,3.72-19.61-6.22-22.17c-2.73-0.71-3.85-5.28-2.04-7.47c1.25-1.52,2.07-3.41,2.59-4.3c1.79-1.98,3.49-3.14,4.08-4.72
					c0.8-2.13-0.74-3.48-2.64-4.69c-3.96-2.52-5.22-8-2.82-12.06c1.17-1.96,2.84-3.67,4.53-5.23c5.56-5.08,11.32-9.94,16.82-15.08
					c3.91-3.67,6.79-8.12,6.17-13.75c-0.3-2.72-1.66-5.34-2.61-8.21c0.34-0.12,0.92-0.39,1.53-0.52c14.15-3.11,28.31-6.2,42.47-9.31
					c11.99-2.63,24.03-5.07,35.96-7.97c12.03-2.92,18.96-12.08,18.96-24.33c0-15.17,0-30.36,0-45.54c0-1.19,0-2.39,0-3.98
					c9.95,2.87,19.47,5.7,29.06,8.34c9.89,2.73,19.73,5.9,29.8,7.72c3.99,0.72,7.74,0.12,10.93-1.46
					c9.53,25.04,14.77,52.18,14.77,80.53C614.37,542.36,519.93,641.23,401.17,648.38z"/>
			</g>
		</g>
	</g>
</g>
</svg>
